<svg xmlns="http://www.w3.org/2000/svg" width="446.921" height="495.4" viewBox="0 0 446.921 495.4">
  <g id="in-equity-11-icon-6" transform="translate(0.021)">
    <path id="Path_361" data-name="Path 361" d="M86.6,51C185,51,252.5,0,299.9,0s147,27.2,147,245.3-134,250.1-186.1,250.1C16.6,495.4-87.7,51,86.6,51Z" fill="#efefef"/>
    <path id="Path_362" data-name="Path 362" d="M106.1,116.1H283.9V365H106.1Z" fill="#f3f3f1"/>
    <path id="Path_363" data-name="Path 363" d="M170.1,116.1H134.5V101.9a14.19,14.19,0,0,1,14.2-14.2h7.1A14.19,14.19,0,0,1,170,101.9v14.2Z" fill="#2fdf84"/>
    <path id="Path_364" data-name="Path 364" d="M355,353.4c0,30-23.9,54.3-53.3,54.3s-53.3-24.3-53.3-54.3c0-33.9,53.3-95,53.3-95S355,319.4,355,353.4Z" fill="#ee5c25"/>
    <path id="Path_365" data-name="Path 365" d="M106.1,116.1h32V365h-32V116.1Z" fill="#d5dbe1"/>
    <path id="Path_366" data-name="Path 366" d="M168.3,95.4a14.15,14.15,0,0,0-12.4-7.7h-7.1a14.19,14.19,0,0,0-14.2,14.2v14.2h32V101.9A13.128,13.128,0,0,1,168.3,95.4Z" fill="#fcb42d"/>
    <path id="Path_367" data-name="Path 367" d="M202.1,375.7h-96A10.712,10.712,0,0,1,95.4,365V116.1a10.712,10.712,0,0,1,10.7-10.7H283.9a10.712,10.712,0,0,1,10.7,10.7V226.3H273.3V126.7H116.8V354.3h85.3v21.4Z"/>
    <path id="Path_368" data-name="Path 368" d="M170.1,126.8H134.5a10.712,10.712,0,0,1-10.7-10.7V101.9A24.967,24.967,0,0,1,148.7,77h7.1a24.967,24.967,0,0,1,24.9,24.9v14.2a10.564,10.564,0,0,1-10.6,10.7Zm-24.9-21.3h14.2v-3.6a3.585,3.585,0,0,0-3.6-3.6h-7.1a3.585,3.585,0,0,0-3.6,3.6v3.6Z"/>
    <path id="Path_369" data-name="Path 369" d="M81.2,105.5H308.8v21.3H81.2Zm0,248.9H184.3v21.3H81.2Zm0-124.5H266.1v21.3H81.2ZM301.7,418.4c-35.3,0-64-29.1-64-65,0-36.9,50.2-95.5,56-102a11.117,11.117,0,0,1,16.1,0c5.7,6.6,56,65.2,56,102C365.7,389.2,336.9,418.4,301.7,418.4Zm0-143.4c-16.6,20.7-42.7,57.7-42.7,78.4,0,24.1,19.1,43.6,42.7,43.6s42.7-19.6,42.7-43.6C344.3,334.4,320.7,298.7,301.7,275Z"/>
  </g>
</svg>
