<svg xmlns="http://www.w3.org/2000/svg" width="507.602" height="456.499" viewBox="0 0 507.602 456.499">
  <g id="in-equity-5-award-1" transform="translate(-0.011 0.032)">
    <path id="Path_370" data-name="Path 370" d="M494.6,265c-52.5-83.2-45.5-167.5-70.8-207.6-25.4-40-101.6-109.6-286,6.8S-2.1,310.9,25.7,355C156.1,561.5,587.6,412.4,494.6,265Z" fill="#efefef"/>
    <path id="Path_371" data-name="Path 371" d="M317.9,97.1,273.3,71.2a22.844,22.844,0,0,0-21.4-.8L191.3,99.6A20.924,20.924,0,0,0,180.2,125c16,47.2,72.3,179.1,134.7,249.7,0,0-40.3-153.3,11.1-250a20.384,20.384,0,0,0-8.1-27.6Z" fill="#ee5c25"/>
    <path id="Path_372" data-name="Path 372" d="M201,181.8c14.6,83.8-.1,145.1-7.7,174.1-2.8,10.8,3.4,21.8,14.4,25.3l20.1,5.8a22.742,22.742,0,0,0,11.3.7l75.7-13Z" fill="#f3f3f1"/>
    <path id="Path_373" data-name="Path 373" d="M236.2,381.3c-11-3.5-17.2-14.5-14.4-25.3,5.7-21.8,15.4-61.7,13.7-115.7L201,181.9c14.6,83.8-.1,145.1-7.7,174.1-2.8,10.8,3.4,21.8,14.4,25.3l20.1,5.8a22.742,22.742,0,0,0,11.3.7l12.2-2.1Z" fill="#d5dbe1"/>
    <path id="Path_374" data-name="Path 374" d="M314.9,385.5a10.861,10.861,0,0,1-8-3.6c-62.4-70.6-119.1-201.2-136.8-253.4a31.58,31.58,0,0,1,16.5-38.4l60.7-29.2a33.375,33.375,0,0,1,31.3,1.2l44.6,25.8a31.457,31.457,0,0,1,12.2,42,184.074,184.074,0,0,0-14.6,37l-20.5-5.8a203.362,203.362,0,0,1,16.3-41.2,9.971,9.971,0,0,0-4-13.5L267.9,80.6a12.4,12.4,0,0,0-11.4-.4l-60.6,29.2a10.176,10.176,0,0,0-5.6,12.4c14,41.3,56.5,140.5,105.3,210.9-5.2-33.7-9.6-82.1-3.6-130.2l21.2,2.7c-10.3,81.2,11.7,166.2,11.9,167a10.551,10.551,0,0,1-10.2,13.3Z"/>
    <path id="Path_375" data-name="Path 375" d="M234.9,398.9a33.518,33.518,0,0,1-10.3-1.6l-19.9-5.8c-16.5-5.3-26-22-21.7-38.3,6.1-23.3,22.2-85.2,7.5-169.6l21-3.7C227,268.8,210,334,203.6,358.5c-1.4,5.3,1.7,10.7,7.3,12.5l19.9,5.7a12.433,12.433,0,0,0,6.3.4l76-13,3.6,21-75.7,13a21.317,21.317,0,0,1-6.1.8Z"/>
    <path id="Path_376" data-name="Path 376" d="M243.8,390.5,223,385.8c18-79.4-31.3-198.6-31.8-199.8l19.7-8.2c2.1,5.1,52.4,126.7,32.9,212.7Zm61.8-10.4c-69.4-121-54.1-302-53.4-309.6l21.2,1.9c-.2,1.8-15.3,182,50.7,297.1l-18.5,10.6Z"/>
  </g>
</svg>
