<svg xmlns="http://www.w3.org/2000/svg" width="496.499" height="492.73" viewBox="0 0 496.499 492.73">
  <g id="in-equity-5-award-3" transform="translate(-0.009 0.014)">
    <path id="Path_385" data-name="Path 385" d="M41.2,330.1C127.4,377.5,162,454.7,203.6,477.5c41.5,22.8,141.9,46.9,247-144.2S453.7,49.6,408,24.5C194-93.1-111.5,246.1,41.2,330.1Z" fill="#efefef"/>
    <path id="Path_386" data-name="Path 386" d="M365.5,406.4H130.9V370.8a28.381,28.381,0,0,1,28.4-28.4H337.1a28.381,28.381,0,0,1,28.4,28.4v35.6Z" fill="#f3f3f1"/>
    <path id="Path_387" data-name="Path 387" d="M159.3,342.4V100.6a14.2,14.2,0,0,1,19.3-13.3L327.9,154a14.2,14.2,0,0,1,9.1,13.3V342.4H159.3Z" fill="#ee5c25"/>
    <path id="Path_388" data-name="Path 388" d="M248.2,171.7l16.5,35.1,36.8,5.6-26.7,27.3,6.4,38.7-33-18.2-33,18.2,6.3-38.6-26.7-27.3,36.8-5.6,16.6-35.2Z" fill="#f3f3f1"/>
    <path id="Path_389" data-name="Path 389" d="M187.8,342.4H159.4A28.381,28.381,0,0,0,131,370.8v35.6h28.4V370.8A28.254,28.254,0,0,1,187.8,342.4Z" fill="#d5dbe1"/>
    <path id="Path_390" data-name="Path 390" d="M365.5,417.1H130.9a10.712,10.712,0,0,1-10.7-10.7V370.8a39.093,39.093,0,0,1,39.1-39.1H337.1a39.093,39.093,0,0,1,39.1,39.1v35.6a10.712,10.712,0,0,1-10.7,10.7Zm-224-21.4H354.8V370.8A17.839,17.839,0,0,0,337,353H159.3a17.839,17.839,0,0,0-17.8,17.8Z"/>
    <path id="Path_391" data-name="Path 391" d="M347.8,342.4H326.5V167.3a3.458,3.458,0,0,0-2.3-3.3L174.3,97.1a3.688,3.688,0,0,0-2.8.6,3.386,3.386,0,0,0-1.5,2.9v68H148.7v-68a24.866,24.866,0,0,1,33.8-23.2l149.8,66.9c9,3.4,15.4,12.8,15.4,23l.1,175.1Zm-199.2-128h21.3v128H148.6Zm132.6,74.7a10.564,10.564,0,0,1-5.2-1.3l-27.8-15.4-27.8,15.4a10.712,10.712,0,0,1-11.3-.6,10.874,10.874,0,0,1-4.4-10.4l5.4-33.3-22.9-23.6a10.594,10.594,0,0,1-2.5-10.8,10.982,10.982,0,0,1,8.5-7.2l31.2-4.8,14.1-30c3.5-7.5,15.8-7.5,19.3,0l14.1,30,31.2,4.8a10.664,10.664,0,0,1,8.5,7.2,10.5,10.5,0,0,1-2.5,10.8l-22.8,23.5,5.4,33.3a10.41,10.41,0,0,1-4.4,10.4A10.585,10.585,0,0,1,281.2,289.1Zm-33-39.6a10.564,10.564,0,0,1,5.2,1.3l13.7,7.6-2.8-16.9a10.88,10.88,0,0,1,2.9-9.2l12.2-12.5-16.3-2.5a10.551,10.551,0,0,1-8-6l-6.8-14.5-6.8,14.5a10.551,10.551,0,0,1-8,6l-16.3,2.5,12.2,12.5a10.689,10.689,0,0,1,2.9,9.2l-2.8,16.9,13.7-7.6a10.325,10.325,0,0,1,5-1.3Z"/>
  </g>
</svg>
