<svg id="in-equity-11-icon-5" xmlns="http://www.w3.org/2000/svg" width="495.4" height="446.854" viewBox="0 0 495.4 446.854">
  <path id="Path_350" data-name="Path 350" d="M51,360.3C51,261.9,0,194.4,0,147S27.2,0,245.3,0,495.4,133.9,495.4,186.1C495.4,430.2,51,534.5,51,360.3Z" fill="#efefef"/>
  <path id="Path_351" data-name="Path 351" d="M335.8,118.7a97.139,97.139,0,0,0-88.1-55.3c-49.1,0-89.6,35.7-96.3,82.5h-1.1c-34.6,0-62.6,27.6-62.6,61.9s28,61.9,62.6,61.9H331.2c42.3,0,76.5-33.8,76.5-75.6,0-40.3-31.7-73.2-71.9-75.4Zm-49,67.5a19.461,19.461,0,0,1-19.5,19.5H215.7V127.5h44.5A19.461,19.461,0,0,1,279.7,147v.1a19.461,19.461,0,0,1-19.5,19.5h7.1a19.461,19.461,0,0,1,19.5,19.5v.1Z" fill="#f3f3f1"/>
  <g id="Group_46" data-name="Group 46">
    <path id="Path_392" data-name="Path 392" d="M17.8,0A17.8,17.8,0,1,1,0,17.8,17.8,17.8,0,0,1,17.8,0Z" transform="translate(87.7 333.6)" fill="#ee5c25"/>
    <path id="Path_394" data-name="Path 394" d="M17.8,0A17.8,17.8,0,1,1,0,17.8,17.8,17.8,0,0,1,17.8,0Z" transform="translate(372.1 333.6)" fill="#ee5c25"/>
    <path id="Path_393" data-name="Path 393" d="M17.8,0A17.8,17.8,0,1,1,0,17.8,17.8,17.8,0,0,1,17.8,0Z" transform="translate(229.9 333.6)" fill="#ee5c25"/>
    <path id="Path_352" data-name="Path 352" d="M260.2,166.5H215.7V127.4h44.5a19.461,19.461,0,0,1,19.5,19.5v.1A19.461,19.461,0,0,1,260.2,166.5Zm7.1,39.2H215.7V166.6h51.6a19.461,19.461,0,0,1,19.5,19.5v.1a19.525,19.525,0,0,1-19.5,19.5Z" fill="#ee5c25"/>
  </g>
  <path id="Path_353" data-name="Path 353" d="M119.7,207.8c0-34.2,28-61.9,62.6-61.9h1.1c5.9-41.5,38.5-74.3,80.2-81.1a93.075,93.075,0,0,0-15.9-1.4c-49.1,0-89.6,35.7-96.3,82.5h-1.1c-34.6,0-62.6,27.6-62.6,61.9s28,61.9,62.6,61.9h32c-34.6,0-62.6-27.7-62.6-61.9Z" fill="#d5dbe1"/>
  <path id="Path_354" data-name="Path 354" d="M105.5,379.9a28.4,28.4,0,1,1,28.4-28.4,28.445,28.445,0,0,1-28.4,28.4Zm0-35.6a7.1,7.1,0,1,0,7.1,7.1A7.13,7.13,0,0,0,105.5,344.3Z"/>
  <path id="Path_355" data-name="Path 355" d="M389.9,379.9a28.4,28.4,0,1,1,28.4-28.4A28.445,28.445,0,0,1,389.9,379.9Zm0-35.6a7.1,7.1,0,1,0,7.1,7.1A7.13,7.13,0,0,0,389.9,344.3Z"/>
  <path id="Path_356" data-name="Path 356" d="M105.5,379.9a28.4,28.4,0,1,1,28.4-28.4,28.445,28.445,0,0,1-28.4,28.4Zm0-35.6a7.1,7.1,0,1,0,7.1,7.1A7.13,7.13,0,0,0,105.5,344.3Z" transform="translate(142.2)"/>
  <path id="Path_357" data-name="Path 357" d="M169.5,362.1H126.8V340.8h32V269.7h21.3v81.8A10.605,10.605,0,0,1,169.5,362.1Zm199.1,0H318.8a10.712,10.712,0,0,1-10.7-10.7V269.6h21.3v71.1h39.1v21.4ZM237,269.7h21.3v60.4H237Z"/>
  <path id="Path_358" data-name="Path 358" d="M331.2,280.3H150.3c-40.4,0-73.3-32.5-73.3-72.5,0-37.4,28.7-68.3,65.5-72.1,11.1-47.8,54.8-82.9,105.2-82.9a108.294,108.294,0,0,1,94.9,55.9c43,5.4,75.8,41.8,75.8,85.4C418.4,241.6,379.2,280.3,331.2,280.3ZM247.7,74.1c-42.9,0-79.7,31.5-85.7,73.3a10.673,10.673,0,0,1-10.6,9.2c-29.8,0-53,23-53,51.2S121.7,259,150.3,259H331.2c36.3,0,65.9-29.1,65.9-65,0-34.4-27.2-62.8-61.9-64.7a10.831,10.831,0,0,1-9.1-6.1C312,93.4,281.2,74.1,247.7,74.1Zm12.5,103.1H215.7A10.712,10.712,0,0,1,205,166.5V127.4a10.712,10.712,0,0,1,10.7-10.7h44.5a30.25,30.25,0,0,1,0,60.5Zm-33.8-21.3h33.8a8.813,8.813,0,0,0,8.8-8.8,8.922,8.922,0,0,0-8.8-9H226.4Z"/>
  <path id="Path_359" data-name="Path 359" d="M267.3,216.3H215.7A10.712,10.712,0,0,1,205,205.6V166.5a10.712,10.712,0,0,1,10.7-10.7h51.6a30.25,30.25,0,0,1,0,60.5ZM226.4,195h41a8.813,8.813,0,0,0,8.8-8.8,8.922,8.922,0,0,0-8.8-9h-41Zm-7.2-88.9h21.3v21.3H219.2V106.1Z"/>
  <path id="Path_360" data-name="Path 360" d="M247.7,106.1H269v21.3H247.7V106.1Zm0,99.6H269V227H247.7Zm-28.5,0h21.3V227H219.2Z"/>
</svg>
