<svg id="in-equity-5-award-2" xmlns="http://www.w3.org/2000/svg" width="495.4" height="446.854" viewBox="0 0 495.4 446.854">
  <path id="Path_377" data-name="Path 377" d="M51,360.3C51,261.9,0,194.4,0,147S27.2,0,245.3,0,495.4,133.9,495.4,186.1C495.4,430.2,51,534.5,51,360.3Z" fill="#efefef"/>
  <g id="Group_47" data-name="Group 47">
    <path id="Path_378" data-name="Path 378" d="M336.6,383.4H158.8V347.8A14.19,14.19,0,0,1,173,333.6H322.3a14.19,14.19,0,0,1,14.2,14.2Z" fill="#f3f3f1"/>
    <path id="Path_379" data-name="Path 379" d="M286.4,285.8l11.1,47.8H197.9L209,285.8Z" fill="#f3f3f1"/>
  </g>
  <path id="Path_380" data-name="Path 380" d="M247.7,298.1s103.1-25.5,103.1-115.5V99.2L247.7,63.4,144.6,99.1v83.4c0,90.1,103.1,115.6,103.1,115.6Z" fill="#ee5c25"/>
  <path id="Path_381" data-name="Path 381" d="M209,285.8l-11.1,47.8h28.4l11.1-47.8Zm-7.5,47.8H173.1a14.19,14.19,0,0,0-14.2,14.2v35.6h28.4V347.8A14.19,14.19,0,0,1,201.5,333.6Z" fill="#d5dbe1"/>
  <path id="Path_382" data-name="Path 382" d="M336.6,394.1H158.8a10.712,10.712,0,0,1-10.7-10.7V347.8A24.967,24.967,0,0,1,173,322.9H322.3a24.967,24.967,0,0,1,24.9,24.9v35.6a10.564,10.564,0,0,1-10.6,10.7ZM169.5,372.7H325.9V347.8a3.585,3.585,0,0,0-3.6-3.6H173a3.585,3.585,0,0,0-3.6,3.6v24.9Z"/>
  <path id="Path_383" data-name="Path 383" d="M297.5,344.3H197.9a10.574,10.574,0,0,1-8.3-4,10.432,10.432,0,0,1-2-9l11.1-47.8,20.8,4.8-8,34.7h72.7l-8-34.7,20.8-4.8,11.1,47.8a10.686,10.686,0,0,1-2,9A11.824,11.824,0,0,1,297.5,344.3Z"/>
  <path id="Path_384" data-name="Path 384" d="M247.7,308.7a11.53,11.53,0,0,1-2.6-.3c-1.1-.3-111.2-28.6-111.2-125.9V99.1A10.668,10.668,0,0,1,141.1,89L244.2,53.3a10.507,10.507,0,0,1,7,0L354.3,89a10.668,10.668,0,0,1,7.2,10.1v48.6H340.2v-41l-92.4-32-92.4,32v75.8c0,73.2,77.4,99.9,92.5,104.4,15.6-4.5,92.4-30.6,92.4-104.4v-6.4h21.3v6.4c0,97.2-110.1,125.6-111.2,125.9a13.123,13.123,0,0,1-2.7.3Zm-32-199.1h64v21.3h-64V109.6Zm0,128h64v21.3h-64V237.6Zm-28.4-85.3H308.2v21.3H187.3Zm0,42.7H308.2v21.3H187.3Z"/>
</svg>
