<svg xmlns="http://www.w3.org/2000/svg" width="446.922" height="495.4" viewBox="0 0 446.922 495.4">
  <g id="in-equity-11-icon-4" transform="translate(0.021)">
    <path id="Path_342" data-name="Path 342" d="M86.6,444.4c98.4,0,165.9,51,213.3,51s147-27.2,147-245.3S312.9,0,260.8,0C16.6,0-87.7,444.4,86.6,444.4Z" fill="#efefef"/>
    <path id="Path_343" data-name="Path 343" d="M297.8,251.3H149c-9.7,0-16.7-8.6-13.8-17.1l22.4-66c1.9-5.5,7.5-9.3,13.8-9.3h104c6.3,0,11.9,3.8,13.8,9.3l22.4,66C314.5,242.6,307.6,251.3,297.8,251.3Z" fill="#ee5c25"/>
    <g id="Group_45" data-name="Group 45">
      <path id="Path_344" data-name="Path 344" d="M213.8,350.8a13.319,13.319,0,0,0,12.8-17.2l-20.7-66a13.146,13.146,0,0,0-12.6-9.2H97.5a13.146,13.146,0,0,0-12.6,9.2l-20.7,66A13.319,13.319,0,0,0,77,350.8Z" fill="#f3f3f1"/>
      <path id="Path_345" data-name="Path 345" d="M223.6,346.6a12.962,12.962,0,0,0,9.7,4.3H370.1a13.286,13.286,0,0,0,12.8-17.2l-20.6-66a13.271,13.271,0,0,0-12.7-9.2H253.7a13.364,13.364,0,0,0-12.7,9.2l-17.5,56.2.1,22.7Z" fill="#f3f3f1"/>
    </g>
    <path id="Path_346" data-name="Path 346" d="M92.6,333.7l20.7-66a13.146,13.146,0,0,1,12.6-9.2H97.5a13.146,13.146,0,0,0-12.6,9.2l-20.7,66A13.319,13.319,0,0,0,77,350.9h28.4A13.384,13.384,0,0,1,92.6,333.7ZM252,323.8l17.5-56.2a13.271,13.271,0,0,1,12.7-9.2H253.8a13.364,13.364,0,0,0-12.7,9.2l-17.5,56.2v22.8a12.962,12.962,0,0,0,9.7,4.3h28.4a13.126,13.126,0,0,1-9.7-4.3V323.8Z" fill="#d5dbe1"/>
    <path id="Path_347" data-name="Path 347" d="M297.8,261.9H149a25.672,25.672,0,0,1-20.8-10.4,22.737,22.737,0,0,1-3.1-20.8l22.4-66c3.4-9.9,13-16.5,23.9-16.5h64v21.3h-64a3.763,3.763,0,0,0-3.7,2.1l-22.4,66a1.331,1.331,0,0,0,.3,1.5,4.078,4.078,0,0,0,3.4,1.5H297.8a4,4,0,0,0,3.4-1.5,1.558,1.558,0,0,0,.3-1.5l-22.4-66c-.3-1-1.8-2.1-3.7-2.1H262.5V148.2h12.9c11,0,20.6,6.7,23.9,16.6l22.4,66a22.78,22.78,0,0,1-3.1,20.8,25.72,25.72,0,0,1-20.8,10.3Z"/>
    <path id="Path_348" data-name="Path 348" d="M213.8,361.5H76.9a23.986,23.986,0,0,1-23-30.9l20.7-66.1a23.985,23.985,0,0,1,22.8-16.7h95.7A23.98,23.98,0,0,1,216,264.6l20.6,65.9a23.8,23.8,0,0,1-3.7,21.3,23.1,23.1,0,0,1-19.1,9.7ZM97.5,269a2.494,2.494,0,0,0-2.4,1.7L74.4,336.8a2.464,2.464,0,0,0,.4,2.2,2.606,2.606,0,0,0,2.2,1.1H213.8A2.759,2.759,0,0,0,216,339a2.459,2.459,0,0,0,.4-2.3l-20.7-65.9a2.581,2.581,0,0,0-2.5-1.8H97.5Z"/>
    <path id="Path_349" data-name="Path 349" d="M370.1,361.5H233.2a23.679,23.679,0,0,1-17.6-7.8l15.9-14.2a2.256,2.256,0,0,0,1.7.7H370a2.733,2.733,0,0,0,2.6-3.6L352,270.8a2.713,2.713,0,0,0-2.5-1.8H253.6a2.821,2.821,0,0,0-2.5,1.8L233.7,327l-20.4-6.3,17.5-56.2a24.166,24.166,0,0,1,22.9-16.8h95.9a24.079,24.079,0,0,1,22.8,16.7l20.6,66a23.9,23.9,0,0,1-3.7,21.4,23.551,23.551,0,0,1-19.2,9.7ZM187.3,226.2,167,219.5l11.7-35.6a10.628,10.628,0,0,1,10.1-7.3h52.3v21.3H196.6Zm-71.1,99.5L96,319l11.7-35.6a10.628,10.628,0,0,1,10.1-7.3h52.3v21.3H125.6l-9.4,28.3Zm156.5,0L252.4,319l11.7-35.6a10.628,10.628,0,0,1,10.1-7.3h52.3v21.3H282l-9.3,28.3Z"/>
  </g>
</svg>
