<svg xmlns="http://www.w3.org/2000/svg" width="496.499" height="492.631" viewBox="0 0 496.499 492.631">
  <g id="in-equity-11-icon-1" transform="translate(-0.008 0.014)">
    <path id="Path_329" data-name="Path 329" d="M41.2,330C127.4,377.4,162,454.6,203.6,477.4c41.5,22.8,141.9,46.9,247-144.2S453.7,49.6,408,24.5C194-93.1-111.5,246.1,41.2,330Z" fill="#efefef"/>
    <path id="Path_330" data-name="Path 330" d="M262.4,174.6a88.9,88.9,0,0,1,72.9-87.4,93.32,93.32,0,0,0-16-1.5,88.9,88.9,0,0,0,0,177.8,93.321,93.321,0,0,0,16-1.5A89,89,0,0,1,262.4,174.6Z" fill="#d5dbe1"/>
    <path id="Path_331" data-name="Path 331" d="M109.6,405.7H330a21.317,21.317,0,0,0,21.3-21.3V249.2A21.317,21.317,0,0,0,330,227.9H109.6a21.317,21.317,0,0,0-21.3,21.3V384.3a21.275,21.275,0,0,0,21.3,21.4Z" fill="#ee5c25"/>
    <circle id="Ellipse_59" data-name="Ellipse 59" cx="32" cy="32" r="32" transform="translate(187.8 284.8)" fill="#f3f3f1"/>
    <path id="Path_332" data-name="Path 332" d="M418.9,359.5a21.3,21.3,0,1,1,21.3-21.3A21.317,21.317,0,0,1,418.9,359.5Zm0-28.5a7.1,7.1,0,1,0,7.1,7.1A7.13,7.13,0,0,0,418.9,331Z" fill="#a4afc1"/>
    <path id="Path_333" data-name="Path 333" d="M219.8,359.5a42.7,42.7,0,1,1,42.7-42.7A42.742,42.742,0,0,1,219.8,359.5Zm0-64a21.3,21.3,0,1,0,21.3,21.3A21.317,21.317,0,0,0,219.8,295.5ZM330,416.4H109.6a32.094,32.094,0,0,1-32-32V249.2a32.094,32.094,0,0,1,32-32H330a32.094,32.094,0,0,1,32,32V384.3A32.115,32.115,0,0,1,330,416.4ZM109.6,238.6a10.712,10.712,0,0,0-10.7,10.7V384.4a10.712,10.712,0,0,0,10.7,10.7H330a10.712,10.712,0,0,0,10.7-10.7V249.2A10.712,10.712,0,0,0,330,238.5H109.6Zm223.9-45.3a8.71,8.71,0,0,0-8.7-8H314a30.25,30.25,0,0,1,0-60.5h30.3v21.3H314a8.9,8.9,0,0,0,0,17.8h10.8a29.979,29.979,0,0,1,30,27.5Z"/>
    <path id="Path_334" data-name="Path 334" d="M308.7,114.1H330v21.3H308.7V114.1ZM130.9,259.9h21.3v21.3H130.9Zm156.4,92.5h21.3v21.3H287.3ZM395,239.3l-16.2-13.9a77.5,77.5,0,0,0,18.7-50.8,78.2,78.2,0,0,0-156.4,0,70.205,70.205,0,0,0,1.6,15.5l-20.8,4.6a93.155,93.155,0,0,1-2.1-20.1A99.6,99.6,0,1,1,395,239.3Z"/>
  </g>
</svg>
