<svg id="in-equity-11-icon-3" xmlns="http://www.w3.org/2000/svg" width="495.4" height="446.854" viewBox="0 0 495.4 446.854">
  <path id="Path_335" data-name="Path 335" d="M51,360.3C51,261.9,0,194.4,0,147S27.2,0,245.3,0,495.4,133.9,495.4,186.1C495.4,430.2,51,534.5,51,360.3Z" fill="#efefef"/>
  <path id="Path_336" data-name="Path 336" d="M165.9,340.8h-64V170.1A7.127,7.127,0,0,1,109,163h49.8a7.127,7.127,0,0,1,7.1,7.1Z" fill="#f3f3f1"/>
  <path id="Path_337" data-name="Path 337" d="M279.7,340.8h-64V113.2a7.127,7.127,0,0,1,7.1-7.1h49.8a7.127,7.127,0,0,1,7.1,7.1Z" fill="#ee5c25"/>
  <path id="Path_338" data-name="Path 338" d="M393.5,340.8h-64v-128a7.127,7.127,0,0,1,7.1-7.1h49.8a7.127,7.127,0,0,1,7.1,7.1Z" fill="#f3f3f1"/>
  <path id="Path_339" data-name="Path 339" d="M141,163H109a7.13,7.13,0,0,0-7.1,7.1V340.8h32V170.1A7.13,7.13,0,0,1,141,163Zm227.6,42.7h-32a7.13,7.13,0,0,0-7.1,7.1v128h32v-128a7.063,7.063,0,0,1,7.1-7.1Z" fill="#d5dbe1"/>
  <path id="Path_340" data-name="Path 340" d="M20.1,330.1H475.2v21.3H20.1Z"/>
  <path id="Path_341" data-name="Path 341" d="M165.9,351.4h-64a10.712,10.712,0,0,1-10.7-10.7V170.1A17.839,17.839,0,0,1,109,152.3h49.8a17.839,17.839,0,0,1,17.8,17.8V340.8a10.627,10.627,0,0,1-10.7,10.6Zm-53.3-21.3h42.7V173.7H112.6V330.1Zm167.1,21.3h-64A10.712,10.712,0,0,1,205,340.7V113.2a17.839,17.839,0,0,1,17.8-17.8h49.8a17.839,17.839,0,0,1,17.8,17.8V340.8a10.627,10.627,0,0,1-10.7,10.6Zm-53.3-21.3H269V116.8H226.3V330.1Zm167.1,21.3h-64a10.712,10.712,0,0,1-10.7-10.7v-128a17.839,17.839,0,0,1,17.8-17.8h49.8a17.839,17.839,0,0,1,17.8,17.8v128a10.712,10.712,0,0,1-10.7,10.7Zm-53.4-21.3h42.7V216.3H340.1Z"/>
</svg>
