<svg xmlns="http://www.w3.org/2000/svg" width="61" height="58.37" viewBox="0 0 61 58.37">
  <g id="Group_16" data-name="Group 16" transform="translate(-1.5 -2.8)">
    <path id="Path_213" data-name="Path 213" d="M3,25.67v30a4,4,0,0,0,4,4H57a4,4,0,0,0,4-4v-30" fill="none" stroke="#fcb42d" stroke-linecap="round" stroke-linejoin="round" stroke-width="3"/>
    <path id="Path_214" data-name="Path 214" d="M14.5,20.44A53,53,0,0,0,3,25.51H3L29.73,43.94a4,4,0,0,0,4.54,0L61,25.51h0a53,53,0,0,0-11.5-5.07" fill="none" stroke="#fcb42d" stroke-linecap="round" stroke-linejoin="round" stroke-width="3"/>
    <path id="Path_215" data-name="Path 215" d="M14.5,33.44V7.3a3,3,0,0,1,3-3h29a3,3,0,0,1,3,3V33.43L34.27,43.94a4,4,0,0,1-4.54,0L14.51,33.44" fill="none" stroke="#fcb42d" stroke-linecap="round" stroke-linejoin="round" stroke-width="3"/>
    <line id="Line_1" data-name="Line 1" x1="19" transform="translate(22.5 13.19)" fill="none" stroke="#fcb42d" stroke-linecap="round" stroke-linejoin="round" stroke-width="3"/>
    <line id="Line_2" data-name="Line 2" x1="9.5" transform="translate(22.5 28.6)" fill="none" stroke="#fcb42d" stroke-linecap="round" stroke-linejoin="round" stroke-width="3"/>
    <line id="Line_3" data-name="Line 3" x1="19" transform="translate(22.5 20.9)" fill="none" stroke="#fcb42d" stroke-linecap="round" stroke-linejoin="round" stroke-width="3"/>
    <line id="Line_4" data-name="Line 4" x1="20.89" y2="17.8" transform="translate(4.29 40.82)" fill="none" stroke="#fcb42d" stroke-linecap="round" stroke-linejoin="round" stroke-width="3"/>
    <line id="Line_5" data-name="Line 5" x2="20.95" y2="17.8" transform="translate(38.77 40.82)" fill="none" stroke="#fcb42d" stroke-linecap="round" stroke-linejoin="round" stroke-width="3"/>
  </g>
</svg>
