<svg xmlns="http://www.w3.org/2000/svg" width="220.013" height="50.546" viewBox="0 0 220.013 50.546">
  <g id="Tether_Logo" transform="translate(-4.465 -13.693)">
    <ellipse id="Ellipse_22" data-name="Ellipse 22" cx="29.95" cy="25.273" rx="29.95" ry="25.273" transform="translate(4.465 13.693)" fill="#26a17b"/>
    <g id="Group_11" data-name="Group 11" transform="translate(15.752 26.122)">
      <path id="Path_190" data-name="Path 190" d="M49.761,59.459v0c-.207.012-1.276.065-3.655.065-1.9,0-3.236-.045-3.708-.065v0c-7.314-.272-12.77-1.345-12.77-2.633s5.46-2.361,12.77-2.633v4.2c.477.028,1.849.1,3.741.1,2.273,0,3.409-.081,3.621-.1V54.2c7.3.276,12.741,1.349,12.741,2.633s-5.446,2.357-12.741,2.633m0-5.7V50.008H59.945V44.283H32.219v5.725H42.4v3.754c-8.277.321-14.5,1.7-14.5,3.36s6.226,3.039,14.5,3.364V72.522h7.362V60.487c8.263-.321,14.474-1.7,14.474-3.36s-6.212-3.039-14.474-3.36" transform="translate(-27.905 -44.283)" fill="#fff"/>
    </g>
    <path id="Path_191" data-name="Path 191" d="M169.863,43.467v6.07h6.992v4.555h-7.04v9.236c0,2.04,1.334,3.035,3.289,3.035a8.247,8.247,0,0,0,3.034-.65l1.748,4.51a16.331,16.331,0,0,1-5.191.91c-5.5.175-9.1-2.47-9.1-7.805V54.092H158.87V49.537H163.6V44.031ZM290.4,49.253l.462,2.47c1.955-2.645,4.574-3.035,7.146-3.035a10.687,10.687,0,0,1,6.525,2.036l-2.827,4.6a6.973,6.973,0,0,0-4.521-1.39c-3.289,0-6.322,1.475-6.322,5.42V70.625h-6.269V49.245Zm-15.365,8.2c-.409-2.775-2.981-4.165-6.578-4.165-3.39,0-6.168,1.39-7.093,4.165Zm-13.771,4.38c.409,2.645,3.135,4.555,7.555,4.555,2.311,0,5.345-.74,6.785-2l4.006,3.34c-2.672,2.34-7.04,3.47-10.9,3.47-8.735,0-13.93-4.555-13.93-11.405,0-6.505,5.244-11.19,13.468-11.19,8.48,0,13.776,4.425,12.8,13.226ZM233.616,40.273V52.154a10.112,10.112,0,0,1,7.916-3.21c7.194,0,10.382,4.12,10.382,10.41V70.629h-6.269V59.4c0-3.9-2.417-5.55-5.759-5.55a5.94,5.94,0,0,0-6.269,5.855v10.93h-6.269V40.277Zm-16.651,2.95v6.07h6.992v4.555h-7.04v9.236c0,2.04,1.339,3.035,3.289,3.035a8.247,8.247,0,0,0,3.034-.65l1.748,4.51a16.332,16.332,0,0,1-5.191.91c-5.5.175-9.1-2.474-9.1-7.805V53.848h-4.729V49.293H210.7V43.788Zm-17.32,14.225c-.409-2.775-2.981-4.165-6.578-4.165-3.39,0-6.168,1.39-7.093,4.165Zm-13.771,4.38c.409,2.645,3.135,4.555,7.555,4.555,2.311,0,5.345-.74,6.785-2l4.006,3.34c-2.672,2.34-7.04,3.47-10.9,3.47-8.74,0-13.93-4.555-13.93-11.405,0-6.505,5.244-11.19,13.463-11.19,8.48,0,13.771,4.425,12.8,13.226Z" transform="translate(-80.056 -15.78)" fill="#5b5a5d"/>
  </g>
</svg>
