<svg xmlns="http://www.w3.org/2000/svg" xmlns:xlink="http://www.w3.org/1999/xlink" width="77.779" height="47.918" viewBox="0 0 77.779 47.918">
  <defs>
    <linearGradient id="linear-gradient" y1="0.5" x2="1" y2="0.5" gradientUnits="objectBoundingBox">
      <stop offset="0" stop-color="#41e700" stop-opacity="0"/>
      <stop offset="0.736" stop-color="#3acd00"/>
      <stop offset="0.781" stop-color="#36be00"/>
      <stop offset="0.926" stop-color="#299100"/>
      <stop offset="1" stop-color="#248000"/>
    </linearGradient>
  </defs>
  <g id="wire-transfer-1" transform="translate(-0.45 -97.531)">
    <path id="Path_206" data-name="Path 206" d="M73.652,98.284a3.805,3.805,0,0,1,3.817,3.784v38.843a3.805,3.805,0,0,1-3.817,3.784H5.027a3.805,3.805,0,0,1-3.817-3.784V102.068a3.805,3.805,0,0,1,3.817-3.784Zm0-.753H5.027A4.557,4.557,0,0,0,.45,102.068v38.843a4.557,4.557,0,0,0,4.577,4.537H73.652a4.557,4.557,0,0,0,4.577-4.537V102.068A4.557,4.557,0,0,0,73.652,97.531Z" transform="translate(0 0)" fill="#00b5e5"/>
    <g id="Group_15" data-name="Group 15" transform="translate(7.491 124.118)">
      <path id="Path_207" data-name="Path 207" d="M48.823,284.43v-6.836H46.8v-2.116h6.507v2.116H51.284v6.836Zm5.687,0v-8.952h2.572a10.8,10.8,0,0,1,2.106.138,2.7,2.7,0,0,1,1.027.461,2.415,2.415,0,0,1,.749.935,2.961,2.961,0,0,1,.262,1.254,2.644,2.644,0,0,1-.515,1.691,2.517,2.517,0,0,1-1.5.865l2.461,3.607H58.889l-2.072-3.5v3.5H54.51Zm2.307-4.721h.456a1.986,1.986,0,0,0,1.163-.269.976.976,0,0,0,.367-.844,1.18,1.18,0,0,0-.342-.957,1.814,1.814,0,0,0-1.15-.284h-.493Z" transform="translate(-46.8 -275.264)" fill="#00afd8"/>
      <path id="Path_208" data-name="Path 208" d="M143.874,283.223l3.115-8.952h3.084l3.121,8.952h-2.449l-.456-1.6h-3.5l-.469,1.6Zm3.448-3.345h2.449l-.919-2.954q-.043-.134-.117-.434l-.191-.77q-.076.315-.157.63-.074.288-.157.575Zm6.735,3.345v-8.952h2.374l3.411,4.6a6.282,6.282,0,0,1,.324.566q.225.425.5,1.012-.067-.494-.108-.991-.032-.384-.034-.77v-4.421h2.362v8.952h-2.362L157.11,278.6a5.079,5.079,0,0,1-.33-.566q-.225-.425-.491-1,.074.563.108,1,.032.384.034.77v4.421Zm11.164-2.892a4.457,4.457,0,0,0,1.082.923,2.124,2.124,0,0,0,1.064.306,1.229,1.229,0,0,0,.811-.263.828.828,0,0,0,.318-.666.868.868,0,0,0-.274-.688,3.5,3.5,0,0,0-1.243-.5,4.063,4.063,0,0,1-1.875-.923,2.15,2.15,0,0,1-.549-1.559,2.736,2.736,0,0,1,.867-2.094,3.159,3.159,0,0,1,2.248-.81,4.95,4.95,0,0,1,1.415.2,4.6,4.6,0,0,1,1.267.6l-.771,1.755a3.246,3.246,0,0,0-.86-.535,2.3,2.3,0,0,0-.873-.18,1.161,1.161,0,0,0-.722.211.651.651,0,0,0-.278.541.663.663,0,0,0,.244.538,2.658,2.658,0,0,0,.941.385l.111.03a4.629,4.629,0,0,1,1.98.887,2.188,2.188,0,0,1,.487.792,3,3,0,0,1,.167,1.024,2.958,2.958,0,0,1-.944,2.29,3.579,3.579,0,0,1-2.516.865,4.483,4.483,0,0,1-1.718-.318,4.866,4.866,0,0,1-1.49-1Zm6.939,2.892v-8.952h5.533v1.963h-3.133v1.553h2.954v1.92h-2.954v3.516Zm6.871,0v-8.952h5.533v1.963h-3.133v1.553h2.954v1.92h-2.954v1.51h3.133v2.005H179.03Zm7.161,0v-8.952h2.572a10.8,10.8,0,0,1,2.106.138,2.7,2.7,0,0,1,1.027.461,2.418,2.418,0,0,1,.749.935,2.96,2.96,0,0,1,.262,1.254,2.645,2.645,0,0,1-.515,1.691,2.516,2.516,0,0,1-1.5.865l2.461,3.607H190.57l-2.072-3.5v3.5h-2.307ZM188.5,278.5h.456a1.985,1.985,0,0,0,1.162-.269.977.977,0,0,0,.367-.844,1.181,1.181,0,0,0-.342-.957,1.814,1.814,0,0,0-1.15-.284H188.5Z" transform="translate(-129.127 -274.057)" fill="#00afd8"/>
    </g>
    <path id="Path_209" data-name="Path 209" d="M174.246,178.847l1.639,6.147q.116.415.214.866t.2,1.033q.134-.689.227-1.135t.183-.764l1.532-6.147h3.591l-3.688,12.931h-3.3l-1.613-5.52q-.089-.292-.294-1.139-.089-.38-.143-.592l-.125.521q-.2.857-.312,1.21l-1.586,5.52h-3.305L163.8,178.847h3.59l1.5,6.183q.107.477.209.954t.192.98q.084-.389.174-.777.135-.58.281-1.157l1.639-6.183h2.869Zm8.909,12.931V178.847h3.59v12.931Zm6.459,0V178.847h3.715a15.619,15.619,0,0,1,3.042.2,3.9,3.9,0,0,1,1.483.667,3.494,3.494,0,0,1,1.082,1.351,4.273,4.273,0,0,1,.379,1.811,3.82,3.82,0,0,1-.744,2.442,3.633,3.633,0,0,1-2.169,1.25l3.555,5.211h-4.018l-2.993-5.061v5.061h-3.332Zm3.332-6.819h.659a2.871,2.871,0,0,0,1.679-.389,1.41,1.41,0,0,0,.53-1.219,1.705,1.705,0,0,0-.495-1.382,2.621,2.621,0,0,0-1.662-.411h-.712Zm8.365,6.819V178.847H209.3v2.835h-4.526v2.244h4.267V186.7h-4.267v2.182H209.3v2.9Z" transform="translate(-138.531 -69.069)" fill="#006e90"/>
    <path id="Path_210" data-name="Path 210" d="M47.507,178.22H63.78v2.56H47.507Z" transform="translate(-39.908 -68.536)" fill="url(#linear-gradient)"/>
    <path id="Path_211" data-name="Path 211" d="M47.507,211.218H63.78v2.56H47.507Z" transform="translate(-39.908 -96.564)" fill="url(#linear-gradient)"/>
    <path id="Path_212" data-name="Path 212" d="M47.507,247.217H63.78v2.56H47.507Z" transform="translate(-39.908 -127.141)" fill="url(#linear-gradient)"/>
  </g>
</svg>
